# xmcd CD database file
#
# Track frame offsets:
#	150
#	16413
#	30778
#	44396
#	53463
#	65968
#	84538
#	120403
#	148716
#
# Disc length: 2231 seconds
#
# Revision: 3
# Processed by: cddbd v1.5.2PL0 Copyright (c) Steve Scherf et al.
# Submitted via: jetAudio 7
#
DISCID=6e08b509
DTITLE=Breakout - Blues
DYEAR=1971
DGENRE=Blues
TTITLE0=Ona poszla inna droga
TTITLE1=Kiedy bylem malym chlopcem
TTITLE2=Oni zaraz przyjda tu
TTITLE3=Przyszla do mnie bieda
TTITLE4=Pomaluj moje sny
TTITLE5=Usta me ogrzej
TTITLE6=Gdybym byl wichrem
TTITLE7=Co sie stalo kwiatom
TTITLE8=Dzisiejszej nocy
EXTD=
EXTT0=
EXTT1=
EXTT2=
EXTT3=
EXTT4=
EXTT5=
EXTT6=
EXTT7=
EXTT8=
PLAYORDER=
